<?xml version="1.0" encoding="UTF-8"?> <svg xmlns="http://www.w3.org/2000/svg" width="219" height="95" viewBox="0 0 219 95" fill="none"> <path d="M62.9082 53.3437L60.7983 52.9712L62.2863 44.5334L64.3962 44.9058L62.9082 53.3437Z" fill="#009393"></path> <path d="M64.3962 44.9052L62.2863 44.5327L63.5265 37.5027L65.6347 37.8751L64.3962 44.9052Z" fill="#326773"></path> <path d="M61.7929 59.6686L59.683 59.2997L60.7985 52.9718L62.9084 53.3424L61.7929 59.6686Z" fill="#326773"></path> <path d="M61.2969 62.4844L59.187 62.1119L59.6842 59.2999L61.7941 59.6688L61.2969 62.4844Z" fill="#009393"></path> <path d="M59.3112 61.4053L57.2013 61.0329L57.5737 58.9266L59.6836 59.299L59.3112 61.4053Z" fill="#326773"></path> <path d="M59.6836 59.2961L57.5737 58.9237L58.6893 52.5975L60.7992 52.97L59.6836 59.2961Z" fill="#009393"></path> <path d="M62.287 44.5327L60.1771 44.162L61.6651 35.7259L63.775 36.0966L62.287 44.5327Z" fill="#00768F"></path> <path d="M60.3431 39.1154L58.2332 38.7429L59.2257 33.1189L61.3356 33.4913L60.3431 39.1154Z" fill="#00768F"></path> <path d="M57.1993 36.3849L55.0894 36.0143L55.959 31.0924L58.0671 31.4648L57.1993 36.3849Z" fill="#0092BD"></path> <path d="M58.1078 27.1215L55.9979 26.7508L56.4933 23.937L58.6032 24.3094L58.1078 27.1215Z" fill="#0092BD"></path> <path d="M61.2516 29.8503L59.1417 29.4796L60.0096 24.5559L62.1195 24.9284L61.2516 29.8503Z" fill="#0092BD"></path> <path d="M64.518 31.876L62.4099 31.5053L63.7732 23.7714L65.8813 24.1438L64.518 31.876Z" fill="#00768F"></path> <path d="M68.6538 28.9819L66.5457 28.6095L67.5365 22.9855L69.6464 23.3579L68.6538 28.9819Z" fill="#00768F"></path> <path d="M67.6617 34.6063L65.5518 34.2339L66.2966 30.0159L68.4065 30.3865L67.6617 34.6063Z" fill="#326773"></path> <path d="M72.0446 30.3028L69.9365 29.9321L70.6796 25.7159L72.7895 26.0865L72.0446 30.3028Z" fill="#00768F"></path> <path d="M55.7115 44.8233L53.6016 44.4526L54.8418 37.4208L56.95 37.7933L55.7115 44.8233Z" fill="#4B5D7B"></path> <path d="M53.8512 55.3702L51.743 54.9978L53.354 45.8578L55.4639 46.2303L53.8512 55.3702Z" fill="#4B5D7B"></path> <path d="M50.4602 54.0467L48.3503 53.676L50.086 43.8322L52.1959 44.2046L50.4602 54.0467Z" fill="#4B5D7B"></path> <path d="M45.8694 55.4119L43.7595 55.0395L44.7521 49.4154L46.8602 49.7861L45.8694 55.4119Z" fill="#BF347B"></path> <path d="M47.1086 48.3804L44.9987 48.008L46.1142 41.6818L48.2241 42.0525L47.1086 48.3804Z" fill="#7C5589"></path> <path d="M48.4729 40.6468L46.363 40.2743L47.4804 33.9464L49.5885 34.3189L48.4729 40.6468Z" fill="#7C5589"></path> <path d="M49.8364 32.9131L47.7283 32.5406L48.842 26.2127L50.9519 26.5852L49.8364 32.9131Z" fill="#0092BD"></path> <path d="M46.1139 29.356L44.004 28.9853L44.9966 23.3595L47.1065 23.7319L46.1139 29.356Z" fill="#0092BD"></path> <path d="M41.9366 24.2709L39.8267 23.8985L40.3238 21.0865L42.432 21.4589L41.9366 24.2709Z" fill="#0092BD"></path> <path d="M41.1925 28.4894L39.0826 28.1169L39.578 25.3049L41.6879 25.6774L41.1925 28.4894Z" fill="#0092BD"></path> <path d="M39.7046 36.9261L37.5947 36.5537L38.835 29.5237L40.9449 29.8961L39.7046 36.9261Z" fill="#7C5589"></path> <path d="M38.5892 43.2538L36.4811 42.8813L37.3471 37.9612L39.457 38.3319L38.5892 43.2538Z" fill="#7C5589"></path> <path d="M37.2256 50.9873L35.1157 50.6166L36.2313 44.2869L38.3412 44.6594L37.2256 50.9873Z" fill="#BF347B"></path> <path d="M32.5514 48.7128L30.4415 48.3403L31.6818 41.3103L33.7899 41.6827L32.5514 48.7128Z" fill="#BF347B"></path> <path d="M34.0384 40.2761L31.9285 39.9037L32.6733 35.6874L34.7815 36.0599L34.0384 40.2761Z" fill="#7C5589"></path> <path d="M35.0313 34.6516L32.9214 34.281L34.1617 27.2491L36.2698 27.6216L35.0313 34.6516Z" fill="#7C5589"></path> <path d="M36.5183 26.2148L34.4102 25.8424L34.7808 23.7343L36.8907 24.1049L36.5183 26.2148Z" fill="#0092BD"></path> <path d="M37.1377 22.6996L35.0295 22.3289L35.7726 18.1109L37.8825 18.4833L37.1377 22.6996Z" fill="#0092BD"></path> <path d="M31.2662 23.1138L29.1562 22.7413L30.3965 15.7131L32.5047 16.0855L31.2662 23.1138Z" fill="#0092BD"></path> <path d="M30.5221 27.3321L28.4122 26.9597L28.9076 24.1494L31.0175 24.5201L30.5221 27.3321Z" fill="#7C5589"></path> <path d="M24.9377 21.9982L22.8278 21.6258L24.191 13.8936L26.3009 14.2661L24.9377 21.9982Z" fill="#0092BD"></path> <path d="M16.0025 11L15.5071 13.812L17.6152 14.1827L18.1124 11.3707L16.0025 11Z" fill="#0092BD"></path> <path d="M23.3272 31.1381L21.2173 30.7674L22.4576 23.7356L24.5657 24.108L23.3272 31.1381Z" fill="#7C5589"></path> <path d="M21.7148 40.2778L19.6049 39.9071L20.9681 32.1732L23.078 32.5438L21.7148 40.2778Z" fill="#BF347B"></path> <path d="M21.0945 43.7932L18.9846 43.4207L19.3571 41.3126L21.467 41.6832L21.0945 43.7932Z" fill="#BF347B"></path> <path d="M17.9063 20.7574L15.7964 20.3867L16.2936 17.5747L18.4017 17.9489L17.9063 20.7574Z" fill="#7C5589"></path> <path d="M16.6672 27.7882L14.5573 27.4158L15.5498 21.7935L17.658 22.166L16.6672 27.7882Z" fill="#7C5589"></path> <path d="M15.3029 35.5236L13.193 35.1511L14.3085 28.8232L16.4184 29.1974L15.3029 35.5236Z" fill="#BF347B"></path> <path d="M14.6833 39.0388L12.5752 38.6663L12.9459 36.5582L15.0558 36.9289L14.6833 39.0388Z" fill="#BF347B"></path> <path d="M10.5041 21.6276L8.39417 21.2551L9.38675 15.6311L11.4949 16.0035L10.5041 21.6276Z" fill="#7C5589"></path> <path d="M1.15637 17.0786L3.26628 17.451L3.88642 13.9351L1.77473 13.5627L1.15637 17.0786Z" fill="#7C5589"></path> <path d="M0 27.7499L2.10991 28.1223L2.60531 25.3103L0.4954 24.9379L0 27.7499Z" fill="#BF347B"></path> <path d="M8.52031 32.8765L6.4104 32.5059L7.89838 24.0698L10.0083 24.4405L8.52031 32.8765Z" fill="#BF347B"></path> <path d="M29.0345 35.7689L26.9246 35.3983L28.1648 28.3664L30.273 28.7389L29.0345 35.7689Z" fill="#7C5589"></path> <path d="M27.1748 46.3148L25.0649 45.9441L26.6777 36.8041L28.7858 37.1748L27.1748 46.3148Z" fill="#BF347B"></path> <path d="M44.626 37.7928L42.5161 37.4221L43.7564 30.3921L45.8645 30.7645L44.626 37.7928Z" fill="#7C5589"></path> <path d="M43.2625 45.5265L41.1526 45.1558L42.1452 39.5318L44.2551 39.9042L43.2625 45.5265Z" fill="#7C5589"></path> <path d="M41.8992 53.2601L39.7893 52.8895L41.0296 45.8594L43.1395 46.2319L41.8992 53.2601Z" fill="#BF347B"></path> <path d="M53.9312 34.361L51.8213 33.9885L52.9368 27.6606L55.0467 28.0312L53.9312 34.361Z" fill="#0092BD"></path> <path d="M52.4433 42.796L50.3352 42.4253L51.5737 35.3953L53.6836 35.7677L52.4433 42.796Z" fill="#4B5D7B"></path> <path d="M49.8399 57.5627L47.73 57.1903L48.2254 54.3783L50.3353 54.7507L49.8399 57.5627Z" fill="#BF347B"></path> <path d="M59.1024 46.146L56.9943 45.7753L57.9851 40.1495L60.095 40.522L59.1024 46.146Z" fill="#326773"></path> <path d="M57.1183 57.3958L55.0084 57.0234L56.7441 47.1795L58.854 47.552L57.1183 57.3958Z" fill="#4B5D7B"></path> <path d="M56.6225 60.2079L54.5126 59.8355L54.885 57.7256L56.9949 58.098L56.6225 60.2079Z" fill="#326773"></path> <path d="M52.9836 60.2916L50.8755 59.9191L51.4956 56.4032L53.6038 56.7756L52.9836 60.2916Z" fill="#7C5589"></path> <path d="M51.2477 70.1344L49.1378 69.762L50.3781 62.7319L52.488 63.1044L51.2477 70.1344Z" fill="#00768F"></path> <path d="M49.2647 81.3833L47.1548 81.0109L48.8905 71.1688L51.0004 71.5412L49.2647 81.3833Z" fill="#00768F"></path> <path d="M45.2935 79.2325L43.1836 78.8636L43.556 76.7501L45.6659 77.1226L45.2935 79.2325Z" fill="#4B5D7B"></path> <path d="M45.9137 75.7171L43.8038 75.3482L45.4166 66.2047L47.5247 66.5771L45.9137 75.7171Z" fill="#4B5D7B"></path> <path d="M41.5711 75.679L39.463 75.3065L40.3309 70.3846L42.439 70.757L41.5711 75.679Z" fill="#7C5589"></path> <path d="M37.1447 71.9966L35.0348 71.6277L35.532 68.8121L37.6419 69.1846L37.1447 71.9966Z" fill="#7C5589"></path> <path d="M55.1354 68.6448L53.0255 68.2723L53.8934 63.3504L56.0033 63.7228L55.1354 68.6448Z" fill="#00768F"></path> <path d="M53.1524 79.8938L51.0425 79.5249L52.7782 69.6793L54.8881 70.0517L53.1524 79.8938Z" fill="#326773"></path> <path d="M52.532 83.4091L50.4221 83.0402L50.9175 80.2282L53.0274 80.5971L52.532 83.4091Z" fill="#00768F"></path> <path d="M59.1893 74.4363L57.0793 74.0638L58.3196 67.0338L60.4295 67.4062L59.1893 74.4363Z" fill="#009393"></path> <path d="M60.4292 67.4058L58.3193 67.0333L58.9395 63.5138L61.0494 63.8863L60.4292 67.4058Z" fill="#326773"></path> <path d="M57.9494 81.4669L55.8413 81.0945L57.0798 74.0644L59.1897 74.4369L57.9494 81.4669Z" fill="#326773"></path> <path d="M57.0802 74.0639L54.9703 73.6915L55.9629 68.0674L58.0728 68.4399L57.0802 74.0639Z" fill="#326773"></path> <path d="M58.0721 68.4395L55.9622 68.067L56.9547 62.443L59.0646 62.8154L58.0721 68.4395Z" fill="#00768F"></path> <path d="M55.8403 81.0945L53.7303 80.7256L54.9706 73.692L57.0805 74.0644L55.8403 81.0945Z" fill="#009393"></path> <path d="M53.1115 84.2374L55.2196 84.6098L56.0874 79.6879L53.9793 79.3154L53.1115 84.2374Z" fill="#00768F"></path> <path d="M55.0972 85.3129L57.2071 85.6853L57.9502 81.4637L55.8421 81.0948L55.0972 85.3129Z" fill="#009393"></path> <path d="M60.7991 52.9695L58.6892 52.597L60.1772 44.161L62.2871 44.5334L60.7991 52.9695Z" fill="#326773"></path> <path d="M92.6812 60.0305C93.2408 59.2268 93.7326 58.1024 93.7326 57.1561C93.7326 55.9996 93.3816 55.0177 92.6812 54.2835C91.9453 53.4103 90.8244 52.8846 89.4576 52.8846H83.2223V61.3599H89.7391C90.8939 61.3599 92.0148 60.8378 92.6812 60.0305ZM95.2384 62.5538C93.7326 63.9563 91.8045 64.76 89.5983 64.76H83.2223V70.4678H79.4034V49.4507H89.5983C92.0843 49.4507 94.2583 50.4647 95.7641 52.252C96.8494 53.617 97.5158 55.1959 97.5158 57.1561C97.5158 59.2963 96.6052 61.1853 95.2384 62.5538" fill="#373535"></path> <path d="M98.0089 49.4507H117.313V52.8151H109.499V70.4678H105.823V52.8151H98.0089V49.4507Z" fill="#373535"></path> <path d="M123.62 49.4507V57.6123H126.632C127.159 57.6123 127.649 57.5072 128.036 57.2987C128.419 57.1205 128.667 56.8068 128.911 56.4255L131.365 52.1469C131.889 51.2006 132.486 50.5342 133.291 50.0067C134.097 49.4845 135.112 49.2066 136.408 49.2066C137.215 49.2066 137.737 49.2066 138.545 49.4507L138.158 52.6369H137.247C136.442 52.6369 135.884 52.7064 135.426 52.9862C135.043 53.2339 134.761 53.478 134.514 53.9342L132.169 57.9277C131.924 58.3144 131.643 58.8366 131.256 59.2233L138.652 70.4678H134.236L128.138 60.8342C127.685 60.9429 127.264 60.9768 126.808 60.9768H123.62V70.4678H119.906V49.4507H123.62Z" fill="#373535"></path> <path d="M144.677 65.1782C145.976 66.6163 147.901 67.4931 150.038 67.4931C152.139 67.4931 154.033 66.6502 155.398 65.2139C156.626 63.9183 157.36 62.0971 157.36 59.9605C157.36 57.7543 156.592 55.9313 155.362 54.6715C153.997 53.269 152.105 52.4261 150.038 52.4261C147.937 52.4261 146.046 53.269 144.677 54.7053C143.453 56.0008 142.681 57.8238 142.681 59.9605C142.681 62.0633 143.453 63.8827 144.677 65.1782ZM157.991 52.1463C159.988 54.2153 161.109 56.9114 161.109 59.9605C161.109 63.0095 160.058 65.638 158.133 67.5964C156.136 69.6618 153.402 70.8557 150.038 70.8557C146.673 70.8557 143.801 69.455 141.84 67.3541C140.053 65.4259 138.934 62.7636 138.934 59.9605C138.934 57.0166 140.017 54.3881 141.876 52.4261C143.836 50.3269 146.673 49.0652 150.038 49.0652C153.297 49.0652 156.029 50.1861 157.991 52.1463Z" fill="#373535"></path> <path d="M168.012 49.4507L175.44 59.8523L182.691 49.4507H186.722V70.4678H183.008V55.0533H182.867L175.967 64.8295H174.599L167.627 55.0533H167.487V70.4678H163.948V49.4507H168.012Z" fill="#373535"></path> <path d="M208.971 49.4507L201.718 59.8523L194.291 49.4507H190.229V70.4678H193.767V55.0569H193.906L200.879 64.8295H202.244L209.147 55.0569H209.286V70.4678H213V49.4507H208.971Z" fill="#373535"></path> </svg> 