<?xml version="1.0" encoding="UTF-8"?> <svg xmlns="http://www.w3.org/2000/svg" xmlns:xlink="http://www.w3.org/1999/xlink" id="Layer_1" x="0px" y="0px" viewBox="0 0 173 45" xml:space="preserve"> <g> <path fill="#D1C529" d="M0,14.5v16h4.8v-5.8h13.8V14.5H0L0,14.5z M4.8,18.9h9.3v1.4H4.8V18.9z"></path> <polygon fill="#D1C529" points="40.9,19.1 40.9,14.6 26.9,14.6 22,14.6 22,19.1 22,20.2 22,24.8 22,25.9 22,30.4 26.9,30.4 40.9,30.4 40.9,25.9 26.9,25.9 26.9,24.8 40.9,24.8 40.9,20.2 26.9,20.2 26.9,19.1 "></polygon> <polygon fill="#D1C529" points="63.2,30.5 63.2,28.3 63.2,26.1 63.2,14.5 58.3,14.5 58.3,26.1 56.1,26.1 56,14.6 51.2,14.6 51.2,26.1 48.9,26.1 48.9,14.5 44,14.5 44,26.1 44,28.3 44,30.5 "></polygon> <polygon fill="#D1C529" points="107.4,14.5 88.3,14.5 88.3,18.9 95.3,18.9 95.3,30.5 100.4,30.5 100.4,18.9 107.4,18.9 "></polygon> <polygon fill="#D1C529" points="124.3,14.4 124.3,20.1 115.3,20.1 115.3,14.4 110.4,14.4 110.4,30.6 115.3,30.6 115.3,24.9 124.3,24.9 124.3,30.6 129.1,30.6 129.1,14.4 "></polygon> <path fill="#D1C529" d="M168.2,14.4h-13.9v16.2H173V14.4L168.2,14.4L168.2,14.4z M159.1,19h9v1.3h-9V19z M159.1,24.8h9v1.3h-9V24.8 z"></path> <polygon points="143.4,0 132.1,11.3 151.2,11.2 162.4,0 "></polygon> <polygon points="132,33.7 120.7,45 140,45 151.2,33.7 "></polygon> <polygon fill="#D1C529" points="85.4,19.1 85.4,14.6 71.3,14.6 66.4,14.6 66.4,19.1 66.4,20.2 66.4,24.8 66.4,25.9 66.4,30.4 71.3,30.4 85.4,30.4 85.4,25.9 71.3,25.9 71.3,24.8 85.4,24.8 85.4,20.2 71.3,20.2 71.3,19.1 "></polygon> <polygon fill="#D1C529" points="151.2,19.1 151.2,14.6 137.2,14.6 132.2,14.6 132.2,19.1 132.2,20.2 132.2,24.8 132.2,25.9 132.2,30.4 137.2,30.4 151.2,30.4 151.2,25.9 137.2,25.9 137.2,24.8 151.2,24.8 151.2,20.2 137.2,20.2 137.2,19.1 "></polygon> </g> </svg> 